<svg xmlns="http://www.w3.org/2000/svg" width="512" height="512">
  <g fill="currentcolor" fill-rule="evenodd">
    <path d="M205.2 52.9a50.8 50.8 0 0 1-50.8 50.8 50.8 50.8 0 0 1-50.7-50.8A50.8 50.8 0 0 1 154.4 2a50.8 50.8 0 0 1 50.8 50.8ZM408.3 52.9a50.8 50.8 0 0 1-50.7 50.8 50.8 50.8 0 0 1-50.8-50.8A50.8 50.8 0 0 1 357.6 2a50.8 50.8 0 0 1 50.7 50.8ZM205.2 459.1a50.8 50.8 0 0 1-50.8 50.8 50.8 50.8 0 0 1-50.7-50.8 50.8 50.8 0 0 1 50.7-50.8 50.8 50.8 0 0 1 50.8 50.8zM408.3 459.1a50.8 50.8 0 0 1-50.7 50.8 50.8 50.8 0 0 1-50.8-50.8 50.8 50.8 0 0 1 50.8-50.8 50.8 50.8 0 0 1 50.7 50.8zM205.2 256a50.8 50.8 0 0 1-50.8 50.8 50.8 50.8 0 0 1-50.7-50.8 50.8 50.8 0 0 1 50.7-50.8 50.8 50.8 0 0 1 50.8 50.8zM408.3 256a50.8 50.8 0 0 1-50.7 50.8 50.8 50.8 0 0 1-50.8-50.8 50.8 50.8 0 0 1 50.8-50.8 50.8 50.8 0 0 1 50.7 50.8z"/>
  </g>
</svg>
