<?xml version="1.0" standalone="no"?>
<!DOCTYPE svg PUBLIC "-//W3C//DTD SVG 1.1//EN" "http://www.w3.org/Graphics/SVG/1.1/DTD/svg11.dtd">
<svg xmlns="http://www.w3.org/2000/svg">
<metadata>Copyright (C) 2024 by original authors @ fontello.com</metadata>
<defs>
<font id="fontello" horiz-adv-x="1000" >
<font-face font-family="fontello" font-weight="400" font-stretch="normal" units-per-em="1000" ascent="850" descent="-150" />
<missing-glyph horiz-adv-x="1000" />
<glyph glyph-name="heart" unicode="&#xe800;" d="M500-79q-14 0-25 10l-348 336q-5 5-15 15t-31 37-38 54-30 67-13 77q0 123 71 192t196 70q34 0 70-12t67-33 54-38 42-38q20 20 42 38t54 38 67 33 70 12q125 0 196-70t71-192q0-123-128-251l-347-335q-10-10-25-10z" horiz-adv-x="1000" />

<glyph glyph-name="cancel" unicode="&#xe801;" d="M724 112q0-22-15-38l-76-76q-16-15-38-15t-38 15l-164 165-164-165q-16-15-38-15t-38 15l-76 76q-16 16-16 38t16 38l164 164-164 164q-16 16-16 38t16 38l76 76q16 16 38 16t38-16l164-164 164 164q16 16 38 16t38-16l76-76q15-15 15-38t-15-38l-164-164 164-164q15-15 15-38z" horiz-adv-x="785.7" />

<glyph glyph-name="access" unicode="&#xe802;" d="M857 751c0 0-11 28-39 28-20 0-31-14-32-23-89 13-113-33-189-33-83 0-138 28-138 28v-216c0 0 55-33 138-33 75 0 101 46 189 33v-228c-48-7-79-28-79-54 0-4 2-8 4-13l-316-126c-34 18-80 22-130 22-107 0-194-43-194-104 0-61 87-111 194-111 107 0 194 50 194 111 0 15-6 29-15 42l325 130c15-4 31 3 49 3 61 0 111 16 111 46 0 26-24 47-72 54" horiz-adv-x="1000" />

<glyph glyph-name="base_camp" unicode="&#xe803;" d="M305 564l-9-15-177-384h-38c-5 0-10-6-10-15 0-8 5-14 10-14h391 56 391c5 0 10 6 10 14 0 9-5 15-10 15h-38l-177 384-8 15-9-15-176-384h-21l-177 384z m0-207l49-192h-99z m391 0l49-192h-99z" horiz-adv-x="1000" />

<glyph glyph-name="star" unicode="&#xe804;" d="M929 489q0-12-15-27l-202-197 48-279q0-4 0-12 0-11-6-19t-17-9q-10 0-22 7l-251 132-250-132q-12-7-23-7-11 0-17 9t-6 19q0 4 1 12l48 279-203 197q-14 15-14 27 0 21 31 26l280 40 126 254q11 23 27 23t28-23l125-254 280-40q32-5 32-26z" horiz-adv-x="928.6" />

<glyph glyph-name="star-empty" unicode="&#xe805;" d="M635 290l170 166-235 34-106 213-105-213-236-34 171-166-41-235 211 111 211-111z m294 199q0-12-15-27l-202-197 48-279q0-4 0-12 0-28-23-28-10 0-22 7l-251 132-250-132q-12-7-23-7-11 0-17 9t-6 19q0 4 1 12l48 279-203 197q-14 15-14 27 0 21 31 26l280 40 126 254q11 23 27 23t28-23l125-254 280-40q32-5 32-26z" horiz-adv-x="928.6" />

<glyph glyph-name="angle-down" unicode="&#xe806;" d="M393 181c25-25 64-25 89 0l312 312c25 25 25 64 0 89s-64 24-88 0l-268-268-269 268c-24 24-64 24-88 0s-25-64 0-89l312-312z" horiz-adv-x="875" />

<glyph glyph-name="angle-up" unicode="&#xe807;" d="M393 582c25 24 64 24 89 0l312-313c25-24 25-64 0-88s-64-25-88 0l-268 268-269-268c-24-25-64-25-88 0s-25 64 0 88l312 313z" horiz-adv-x="875" />

<glyph glyph-name="search" unicode="&#xe808;" d="M643 386q0 103-73 176t-177 74-177-74-73-176 73-177 177-73 177 73 73 177z m286-465q0-29-22-50t-50-21q-30 0-50 21l-191 191q-100-69-223-69-80 0-153 31t-125 84-84 125-31 153 31 152 84 126 125 84 153 31 153-31 125-84 84-126 31-152q0-123-69-223l191-191q21-21 21-51z" horiz-adv-x="928.6" />

<glyph glyph-name="bisse" unicode="&#xe809;" d="M429 636l-358-129v-443h72v429l272 109v-64a52 52 0 0 0-7 7 17 17 0 0 1-27 0 51 51 0 0 0-40-18 17 17 0 0 1 0-35c20 0 38 7 53 18a86 86 0 0 1 106 0 86 86 0 0 1 106 0c15-11 33-18 53-18a17 17 0 0 1 0 35 51 51 0 0 0-40 19 17 17 0 0 1-27 0 52 52 0 0 0-7-7v63l272-109v-429h72v443l-358 129v-105a50 50 0 0 0-57 14 17 17 0 0 1-27 0 51 51 0 0 0-58-14z m-90-250a17 17 0 0 1-13-6 51 51 0 0 0-40-19 17 17 0 0 1 0-35c20 0 38 7 53 18 15-11 34-18 53-18h4c19 0 36 7 50 18 15-11 33-18 52-18h4c19 0 36 7 51 18 14-11 32-18 51-18h4c19 0 38 7 53 18 15-11 33-18 53-18a17 17 0 0 1 0 35 51 51 0 0 0-40 19 17 17 0 0 1-27 0 51 51 0 0 0-78 0 17 17 0 0 1-15 6h-1-2a17 17 0 0 1-13-6 51 51 0 0 0-38-19c-14 0-29 8-38 19a17 17 0 0 1-13 6h-4a17 17 0 0 1-13-6 51 51 0 0 0-79 0 17 17 0 0 1-14 6z m-58-183a17 17 0 0 1-15-6 51 51 0 0 0-39-18 17 17 0 0 1 0-36c20 0 38 7 54 18a86 86 0 0 1 105 0c15-11 34-17 53-17h2c19 0 37 6 52 17 14-11 33-17 52-17h1c20 0 38 6 53 17a86 86 0 0 1 107 0c14-11 33-17 53-17a17 17 0 0 1 0 35 51 51 0 0 0-40 18 17 17 0 0 1-27 0 51 51 0 0 0-78 0 17 17 0 0 1-27 0 51 51 0 0 0-80 0 17 17 0 0 1-13 6h-1-1a17 17 0 0 1-13-6 51 51 0 0 0-79 0 17 17 0 0 1-26 0 51 51 0 0 0-80 0 17 17 0 0 1-13 6z" horiz-adv-x="1000" />

<glyph glyph-name="bivouac" unicode="&#xe80a;" d="M498 779c-5 0-10-2-13-5-55-58-122-152-103-247 1-4-1-8-5-10-3-1-8 0-10 4-14 23-26 57-22 101 1 8-3 14-10 17-7 2-15-1-18-8-25-45-48-103-48-162 0-129 104-234 231-234 128 0 231 105 231 234 0 33-15 76-36 122-3 6-10 9-16 7-7-1-12-7-12-13-1-49-13-82-29-104-2-3-6-4-9-2-2 1-3 5-2 8 11 29 5 74-52 136-53 59-66 105-64 139 1 6-3 12-9 15-1 1-3 1-4 2z m-301-492c-21 0-41-13-50-34-11-28 2-60 30-72l181-76-181-76c-28-12-41-44-30-73 9-21 29-34 50-34 7 0 15 1 21 4l282 118 281-118c7-3 14-5 21-5 22 0 42 13 51 35 11 28-2 60-30 72l-180 76 180 76c28 12 42 44 30 72-11 29-43 42-71 30l-282-118-281 119c-7 3-14 4-22 4z" horiz-adv-x="1000" />

<glyph glyph-name="camp_site" unicode="&#xe80b;" d="M500 350l143-214h-286z m-357-214h-54c-10 0-18-25-18-36 0-11 8-36 18-36h822c10 0 18 25 18 36 0 11-9 40-18 36h-54l-357 500z" horiz-adv-x="1000" />

<glyph glyph-name="cave" unicode="&#xe80c;" d="M929 64l-215 286-71-71-214 285-358-500h215c41 137 108 215 178 215 71 0 138-78 179-215" horiz-adv-x="1000" />

<glyph glyph-name="climbing_outdoor" unicode="&#xe80d;" d="M834 779c13 0 23-10 23-23v-809c0-12-10-26-23-26h-554c-9 0-16 8-21 15-4 7-4 16 1 23l83 137c1 3 3 6 4 9l32 88c-9 5-16 13-20 24l-1 3-145-291c-2-5-7-8-13-8-2 0-4 1-6 2-7 3-10 12-7 19l73 146c-1 0-1-1-2-1-3 0-6 1-10 2-23 5-38 28-32 51l24 101-78 46c-16 10-25 32-15 59 17 44 69 178 69 178 11 29 44 44 75 33l48-18 78-13 80 75c7 6 15 8 23 8l80 159c4 7 12 10 20 7 7-4 10-12 6-19l-82-165c4-10 2-23-7-31l-16-16-107-213 26-80 37 25c12 8 21 21 24 36l28 161c1 6 3 11 6 17l55 99 49 173c3 10 12 17 22 17z m-508-85c37 0 66-29 66-64 0-36-29-64-66-64-36 0-65 28-65 64 0 35 29 64 65 64z m134-207l-14-12c-5-5-12-8-20-8-2 0-3 0-5 0l-96 17-37-96 62 13c22 4 44-8 51-29l0-1z m-131-177l-26-6 10-6c16-9 24-28 20-46l-9-36 22 43z" horiz-adv-x="1000" />

<glyph glyph-name="gite" unicode="&#xe80e;" d="M500 779c-10 0-19-4-26-11l-392-394c-14-15-14-38 0-53 15-14 38-15 52 0l29 29h674l29-29c7-7 16-11 26-11 9 0 19 4 26 11 14 15 14 38 0 53l-392 394c-7 7-16 11-26 11z m0-90l90-90-90-90-90 90z m-142-160l104-108h-208z m284 0l104-108h-208z m-428-250v-317c0-23 14-41 36-41h500c22 0 34 18 36 41v317z m174-86h58c14 0 26-12 26-27v-132c0-15-12-27-26-27h-58c-15 0-26 12-26 27v132c0 15 11 27 26 27z m166 0h59c14 0 26-12 26-27v-132c0-15-12-27-26-27h-59c-15 0-26 12-26 27v132c0 15 11 27 26 27z" horiz-adv-x="1000" />

<glyph glyph-name="raster" unicode="&#xe80f;" d="M357 529q0-45-31-76t-76-32-76 32-31 76 31 76 76 31 76-31 31-76z m572-215v-250h-786v107l178 179 90-89 285 285z m53 393h-893q-7 0-12-5t-6-13v-678q0-7 6-13t12-5h893q7 0 13 5t5 13v678q0 8-5 13t-13 5z m89-18v-678q0-37-26-63t-63-27h-893q-36 0-63 27t-26 63v678q0 37 26 63t63 27h893q37 0 63-27t26-63z" horiz-adv-x="1071.4" />

<glyph glyph-name="hut" unicode="&#xe810;" d="M500 779c-5 0-10-2-14-4l-402-211c-10-6-15-24-12-35 4-12 14-36 26-36h804c12 0 22 24 26 36 3 11-2 29-12 35l-402 211c-4 2-9 4-14 4z m-357-358c-29 0-31-7-31-35 0-29 2-37 31-37h714c29 0 31 8 31 37 0 28-2 35-31 35z m0-142c-29 0-31-8-31-36 0-28 2-36 31-36h714c29 0 31 8 31 36 0 28-2 36-31 36z m0-143c-29 0-31-8-31-36 0-28 2-36 31-36h286v72z m428 0v-72h286c29 0 31 8 31 36 0 28-2 36-31 36z m-428-143c-29 0-31-8-31-36 0-28 2-36 31-36h286v72z m428 0v-72h286c29 0 31 8 31 36 0 28-2 36-31 36z" horiz-adv-x="1000" />

<glyph glyph-name="housenumber" unicode="&#xe811;" d="M500 725l-417-375h125v-333h584v333h125z m0-196c88 0 158-71 158-158 0-125-158-271-158-271s-158 146-158 271c0 87 71 158 158 158m0-96a63 63 0 0 1-62-62 63 63 0 0 1 62-63 63 63 0 0 1 63 63 63 63 0 0 1-63 62" horiz-adv-x="1000" />

<glyph glyph-name="route" unicode="&#xe812;" d="M813 225h-188c-34 0-62 28-62 63s28 62 62 62h188s187 209 187 313-84 187-187 187-188-84-188-187c0-50 43-124 89-188h-89c-103 0-187-84-187-187s84-188 187-188h188c34 0 62-28 62-62s-28-63-62-63h-451c-31-48-66-93-92-125h543c103 0 187 84 187 188s-84 187-187 187z m0 500c34 0 62-28 62-62s-28-63-62-63-63 28-63 63 28 62 63 62z m-625-375c-104 0-188-84-188-187s188-313 188-313 187 209 187 313-84 187-187 187z m0-250c-35 0-63 28-63 63s28 62 63 62 62-28 62-62-28-63-62-63z" horiz-adv-x="1000" />

<glyph glyph-name="lake" unicode="&#xe813;" d="M235 331c15 0 30-7 41-20a57 57 0 0 0 43 19c15 0 30-7 41-19a57 57 0 0 0 42 18c14 0 29-7 42-19a57 57 0 0 0 41 19c8 0 14-9 14-19s-7-19-14-19c-12 0-24-7-31-19-3-4-7-6-11-6-4 0-7 3-10 7-8 12-19 19-32 19-12 0-23-7-31-19-2-4-6-7-10-7-4 0-8 3-11 8-7 12-19 19-30 20-13 0-24-8-32-20-3-4-7-7-11-7-4 0-7 3-10 7-7 13-19 20-31 20-7 0-14 9-14 19s7 18 14 18m157 198c16 0 30-7 42-20a57 57 0 0 0 42 20c15 0 30-8 41-20a57 57 0 0 0 42 19c15 0 30-7 42-20a57 57 0 0 0 42 18c7 0 13-7 13-18 0-10-6-19-14-18-12 0-23-7-31-19-2-5-7-7-10-7-5 0-8 2-11 7-7 12-19 20-31 20-12 0-23-7-31-20-3-4-7-7-11-7-4 0-8 3-11 7-7 13-18 20-30 20-12 0-24-7-32-19-3-4-7-7-10-7-5 0-8 3-11 7-7 14-19 21-30 21-7 0-14 8-14 18 0 11 7 19 14 19m308-337a57 57 0 0 0 43 18c7 0 13-8 13-18s-6-19-14-19c-12 0-23-7-31-19-3-4-7-6-11-6-4 0-7 2-10 7-7 12-20 19-31 20-12 0-24-7-31-20-3-4-8-7-11-7-4 0-8 3-11 7-7 13-18 20-31 20-12 0-23-7-31-19-3-4-7-7-11-7-3 0-7 3-10 7-8 13-19 20-31 20-7 0-14 9-14 19 0 10 7 18 15 18 14 0 29-7 41-20a57 57 0 0 0 41 20c15 0 30-8 42-20a57 57 0 0 0 42 18c15 0 30-7 41-19m-630 73c0-20 14-38 38-55 0 0 438-329 790-2 19 15 29 31 30 48 0 44-68 83-173 109-31 21-107 28-66 68 19 17 32 31 41 42a64 64 0 0 1 23 28c3 5 3 7 3 7v6c2 57-114 109-259 117-144 9-262-30-264-86 0-24 20-47 55-67l15-7c13-9 30-23 28-43-2-41-46-52-57-55h-4c-119-23-200-64-200-111" horiz-adv-x="1000" />

<glyph glyph-name="geolocation" unicode="&#xe814;" d="M500 850a46 46 0 0 1-45-45v-94c-164-21-295-151-316-315h-93a46 46 0 0 1-46-46 46 46 0 0 1 46-45h93c21-164 152-295 316-316v-94a46 46 0 0 1 45-45 46 46 0 0 1 46 45v94c164 21 294 152 315 316h94a46 46 0 0 1 45 45 46 46 0 0 1-45 46h-94c-21 164-151 294-315 315v94a46 46 0 0 1-46 45z m0-227c151 0 273-122 273-273 0-151-122-273-273-273-151 0-273 122-273 273 0 151 122 273 273 273z" horiz-adv-x="1000" />

<glyph glyph-name="marker" unicode="&#xe815;" d="M495 715q81-81 81-197t-82-197q-8-9-21-23t-47-59-60-92-48-113-22-131q0 63-20 130t-49 115-58 90-49 62l-20 21q-82 81-82 197t82 197 197 82 198-82z m-199-308q47 0 80 33t33 78-33 79-80 33q-45 0-77-33t-33-79 33-78 77-33z" horiz-adv-x="594" />

<glyph glyph-name="angle-left" unicode="&#xe816;" d="M81 394c-25-24-25-64 0-88l312-313c25-24 64-24 89 0s24 64 0 89l-268 268 268 268c24 25 24 64 0 89s-64 24-89 0l-312-313z" horiz-adv-x="625" />

<glyph glyph-name="angle-right" unicode="&#xe817;" d="M544 394c25-24 25-64 0-88l-312-313c-25-24-64-24-89 0s-24 64 0 89l269 268-269 268c-24 25-24 64 0 89s64 24 89 0l312-313z" horiz-adv-x="625" />

<glyph glyph-name="circle-exclamation" unicode="&#xe818;" d="M500-150a500 500 0 1 1 0 1000 500 500 0 1 1 0-1000z m0 750c26 0 47-21 47-47v-219c0-26-21-46-47-46s-47 20-47 46v219c0 26 21 47 47 47z m-62-437a63 63 0 1 0 125 0 63 63 0 1 0-125 0z" horiz-adv-x="1000" />

<glyph glyph-name="plus" unicode="&#xe819;" d="M786 439v-107q0-22-16-38t-38-15h-232v-233q0-22-16-37t-38-16h-107q-22 0-38 16t-15 37v233h-232q-23 0-38 15t-16 38v107q0 23 16 38t38 16h232v232q0 22 15 38t38 16h107q23 0 38-16t16-38v-232h232q23 0 38-16t16-38z" horiz-adv-x="785.7" />

<glyph glyph-name="point-inter" unicode="&#xe81a;" d="M506 544a192 192 0 0 1 0-384 192 192 0 0 1 0 384z m0-115a77 77 0 0 0 0-154 77 77 0 0 0 0 154z m0-342a77 77 0 0 0 0-154 77 77 0 0 0 0 154z m0 686a77 77 0 0 0 0-154 77 77 0 0 0 0 154z" horiz-adv-x="1000" />

<glyph glyph-name="point-from" unicode="&#xe81b;" d="M506 389a192 192 0 0 1 0 384 192 192 0 0 1 0-384z m0 115a77 77 0 0 0 0 154 77 77 0 0 0 0-154z m0-358a77 77 0 0 0 0 154 77 77 0 0 0 0-154z m0-231a77 77 0 0 0 0 154 77 77 0 0 0 0-154z" horiz-adv-x="1000" />

<glyph glyph-name="point-to" unicode="&#xe81c;" d="M506 300a192 192 0 0 1 0-385 192 192 0 0 1 0 385z m0-115a77 77 0 0 0 0-154 77 77 0 0 0 0 154z m0 357a77 77 0 0 0 0-153 77 77 0 0 0 0 153z m0 231a77 77 0 0 0 0-154 77 77 0 0 0 0 154z" horiz-adv-x="1000" />

<glyph glyph-name="braille" unicode="&#xe81d;" d="M0-26q0 52 36 88t87 36 88-36 37-88-37-88-88-36-87 36-36 88z m0 376q0 51 36 88t87 37 88-37 37-88-37-88-88-37-87 37-36 88z m0 376q0 52 36 88t87 36 88-36 37-88-37-88-88-36-87 36-36 88z m397-752q0 52 37 88t88 36 86-36 37-88-37-88-86-36-88 36-37 88z m0 376q0 51 37 88t88 37 86-37 37-88-37-88-86-37-88 37-37 88z m0 376q0 52 37 88t88 36 86-36 37-88-37-88-86-36-88 36-37 88z" horiz-adv-x="644" />

<glyph glyph-name="locality" unicode="&#xe81e;" d="M563 756c0 52 42 94 93 94h188c52 0 94-42 94-94v-281h78v141c0 26 21 47 47 47s46-21 46-47v-141h47c52 0 94-42 94-94v-437c0-52-42-94-94-94h-500c-51 0-93 42-93 94z m125-62v-63c0-17 14-31 31-31h62c17 0 32 14 32 31v63c0 17-15 31-32 31h-62c-17 0-31-14-31-31m31-156c-17 0-31-15-31-32v-62c0-17 14-31 31-31h62c17 0 32 14 32 31v62c0 17-15 32-32 32z m-31-219v-63c0-17 14-31 31-31h62c17 0 32 14 32 31v63c0 17-15 31-32 31h-62c-17 0-31-14-31-31m343 31c-17 0-31-14-31-31v-63c0-17 14-31 31-31h63c17 0 31 14 31 31v63c0 17-14 31-31 31z m-31-219v-62c0-17 14-31 31-31h63c17 0 31 14 31 31v62c0 17-14 32-31 32h-63c-17 0-31-15-31-32m-562 407c0-12-2-22-4-32 39-27 66-74 66-125 0-88-70-156-156-156h-31v-313c0-35-30-62-63-62-35 0-62 27-62 62v313h-32c-88 0-156 68-156 156 0 51 25 98 65 125-2 10-2 20-2 32 0 103 82 187 187 187 104 0 188-84 188-187" horiz-adv-x="1250" />

<glyph glyph-name="globe" unicode="&#xe81f;" d="M429 779q116 0 215-58t156-156 57-215-57-215-156-156-215-58-216 58-155 156-58 215 58 215 155 156 216 58z m153-291q-2-1-6-5t-7-6q1 0 2 3t3 6 2 4q3 4 12 8 8 4 29 7 19 5 29-6-1 1 5 7t8 7q2 1 8 3t9 4l1 12q-7-1-10 4t-3 12q0-2-4-5 0 4-2 5t-7-1-5-1q-5 2-8 5t-5 9-2 8q-1 3-5 6t-5 6q-1 1-2 3t-1 4-3 3-3 1-4-3-4-5-2-3q-2 1-4 1t-2-1-3-1-3-2q-1-2-4-2t-5-1q8 3-1 6-5 2-9 2 6 2 5 6t-5 8h3q-1 2-5 5t-10 5-7 3q-5 3-19 5t-18 1q-3-4-3-6t2-8 2-7q1-3-3-7t-3-7q0-4 7-9t6-12q-2-4-9-9t-9-6q-3-5-1-11t6-9q1-1 1-2t-2-3-3-2-4-2l-1-1q-7-3-12 3t-7 15q-4 14-9 17-13 4-16-1-3 7-23 15-14 5-33 2 4 0 0 8-4 9-10 7 1 3 2 10t0 7q2 8 7 13 1 1 4 5t5 7 1 4q19-3 28 6 2 3 6 9t6 10q5 3 8 3t8-3 8-3q8-1 8 6t-4 11q7 0 2 10-2 4-5 5-6 2-15-3-4-2 2-4-1 0-6-6t-9-10-9 3q0 0-3 7t-5 8q-5 0-9-9 1 5-6 9t-14 4q11 7-4 15-4 3-12 3t-11-2q-2-4-3-7t3-4 6-3 6-2 5-2q8-6 5-8-1 0-5-2t-6-2-4-2q-1-3 0-8t-1-8q-3 3-5 10t-4 9q4-5-14-3l-5 0q-3 0-9-1t-12-1-7 5q-3 4 0 11 0 2 2 1-2 2-6 5t-6 5q-25-8-52-23 3 0 6 1 3 1 8 4t5 3q19 7 24 4l3 2q7-9 11-14-4 3-17 1-11-3-12-7 4-6 2-10-2 2-6 6t-8 6-8 3q-9 0-13-1-81-45-131-124 4-4 7-4 2-1 3-5t1-6 6 1q5-4 2-10 1 0 25-15 10-10 11-12 2-6-5-10-1 1-5 5t-5 2q-2-3 0-10t6-7q-4 0-5-9t-2-20 0-13l1-1q-2-6 3-19t12-11q-7-1 11-24 3-4 4-5 2-1 7-4t9-6 5-5q2-3 6-13t8-13q-2-3 5-11t6-13q-1 0-2-1t-1 0q2-4 9-8t8-7q1-2 1-6t2-6 4-1q2 11-13 35-8 13-9 16-2 2-4 8t-2 8q1 0 3 0t5-2 4-3 1-1q-1-4 1-10t7-10 10-11 6-7q4-4 8-11t0-8q5 0 11-5t10-11q3-5 4-15t3-13q1-4 5-8t7-5l9-5t7-3q3-2 10-6t12-7q6-2 9-2t8 1 8 2q8 1 16-8t12-12q20-10 30-6-1 0 1-4t4-9 5-8 3-5q3-3 10-8t10-8q4 2 4 5-1-5 4-11t10-6q8 2 8 18-17-8-27 10 0 0-2 3t-2 5-1 4 0 5 2 1q5 0 6 2t-1 7-2 8q-1 4-6 11t-7 8q-3-5-9-4t-9 5q0-1-1-3t-1-4q-7 0-8 0 1 2 1 10t2 13q1 2 3 6t5 9 2 7-3 5-9 1q-11 0-15-11-1-2-2-6t-2-6-5-4q-4-2-14-1t-13 3q-8 4-13 16t-5 20q0 6 1 15t2 14-3 14q2 1 5 5t5 6q2 1 3 1t3 0 2 1 1 3q0 1-2 2-1 1-2 1 4-1 16 1t15-1q9-6 12 1 0 1-1 6t0 7q3-15 16-5 2-1 9-3t9-2q2-1 4-3t3-3 3 0 5 4q5-8 7-13 6-23 10-25 4-2 6-1t3 5 0 8-1 7l-1 5v10l0 4q-8 2-10 7t0 10 9 10q0 1 4 2t9 4 7 4q12 11 8 20 4 0 6 5 0 0-2 2t-5 2-2 2q5 2 1 8 3 2 4 7t4 5q5-6 12-1 5 5 1 9 2 4 11 6t10 5q4-1 5 1t0 7 2 7q2 2 9 5t7 2l9 7q2 2 0 2 10-1 18 6 5 6-4 11 2 4-1 5t-9 4q2 0 7 0t5 1q9 5-3 9-10 2-24-7z m-91-490q115 21 195 106-1 2-7 2t-7 2q-10 4-13 5 1 4-1 7t-5 5-7 5-6 4q-1 1-4 3t-4 3-4 2-5 2-5-1l-2-1q-2 0-3-1t-3-2-2-1 0-2q-12 10-20 13-3 0-6 3t-6 4-6 0-6-3q-3-3-4-9t-1-7q-4 3 0 10t1 10q-1 3-6 2t-6-2-7-5-5-3-4-3-5-5q-2-2-4-6t-2-6q-1 2-7 3t-5 3q1-5 2-19t3-22q4-17-7-26-15-14-16-23-2-12 7-14 0-4-5-12t-4-12q0-3 2-9z" horiz-adv-x="857.1" />

<glyph glyph-name="municipality" unicode="&#xe820;" d="M938 756c0 52-42 94-94 94h-188c-51 0-93-42-93-94v-93h-125v140c0 26-21 47-47 47s-47-21-47-47v-140h-125v140c0 26-21 47-47 47s-47-21-47-47v-140h-31c-52 0-94-42-94-94v-625c0-52 42-94 94-94h1062c52 0 94 42 94 94v437c0 52-42 94-94 94h-218z m187-625v-62c0-17-14-31-31-31h-63c-17 0-31 14-31 31v62c0 17 14 32 31 32h63c17 0 31-15 31-32m-656-93h-63c-17 0-31 14-31 31v62c0 17 14 32 31 32h63c17 0 31-15 31-32v-62c0-17-14-31-31-31m-219 31c0-17-14-31-31-31h-63c-17 0-31 14-31 31v62c0 17 14 32 31 32h63c17 0 31-15 31-32z m844 281c17 0 31-14 31-31v-63c0-17-14-31-31-31h-63c-17 0-31 14-31 31v63c0 17 14 31 31 31z m-594 156v-62c0-17-14-31-31-31h-63c-17 0-31 14-31 31v62c0 17 14 32 31 32h63c17 0 31-15 31-32m-281 32c17 0 31-15 31-32v-62c0-17-14-31-31-31h-63c-17 0-31 14-31 31v62c0 17 14 32 31 32z m281-282c0-17-14-31-31-31h-63c-17 0-31 14-31 31v63c0 17 14 31 31 31h63c17 0 31-14 31-31z m-281-31h-63c-17 0-31 14-31 31v63c0 17 14 31 31 31h63c17 0 31-14 31-31v-63c0-17-14-31-31-31m594 94v-63c0-17-15-31-32-31h-62c-17 0-31 14-31 31v63c0 17 14 31 31 31h62c17 0 32-14 32-31m-32 406c17 0 32-14 32-31v-63c0-17-15-31-32-31h-62c-17 0-31 14-31 31v63c0 17 14 31 31 31z m32-219v-62c0-17-15-31-32-31h-62c-17 0-31 14-31 31v62c0 17 14 32 31 32h62c17 0 32-15 32-32" horiz-adv-x="1250" />

<glyph glyph-name="street" unicode="&#xe821;" d="M1120 64l-273 625c-10 22-31 36-55 36h-190l5-45c1-9-7-17-16-17h-57c-9 0-16 8-15 17l4 45h-190c-24 0-45-14-54-36l-273-625c-19-42 10-89 54-89h384l20 191c2 16 15 28 31 28h135c16 0 29-12 31-28l20-191h384c44 0 73 47 55 89m-611 522a16 16 0 0 0 15 14h77c8 0 15-6 15-14l9-85c2-14-9-26-23-26h-79c-14 0-25 12-23 26z m108-330h-108c-19 0-33 16-32 35l10 94c2 15 15 28 31 28h89c16 0 29-13 31-28l10-94c2-19-13-35-31-35" horiz-adv-x="1125" />

<glyph glyph-name="canyon" unicode="&#xe822;" d="M929-79v429c0 2-1 3-1 5l-40 127-26 213c-1 7-7 12-14 12h-40c-5 0-9-2-11-7l-41-71c-1-2-1-4-1-6l-13-194-63-53c-3-3-5-7-5-12v-277l-97-51h-109l-35 75-13 226c-1 4-3 8-6 10l-88 68v121c0 5-3 10-8 13l-113 53v120c0 5-2 9-6 12l-67 43c-5 2-10 2-14-1l-41-28c-3-3-6-7-6-12v-815z" horiz-adv-x="1000" />

<glyph glyph-name="clipboard-copy" unicode="&#xe823;" d="M375 808c-45 0-83-38-83-83l-42 0c-68 0-125-56-125-125l0-583c0-69 57-125 125-125l500 0c69 0 125 56 125 125l0 83a42 42 0 0 1-42 42 42 42 0 0 1-41-42l0-83c0-24-18-42-42-42l-500 0c-23 0-42 18-42 42l0 583c0 24 19 42 42 42l42 0c0-46 38-84 83-84l250 0c46 0 83 38 83 84l42 0c24 0 42-18 42-42l0-167a42 42 0 0 1 41-41 42 42 0 0 1 42 41l0 167c0 69-56 125-125 125l-42 0c0 45-37 83-83 83l-250 0z m0-83l250 0 0-83-250 0 0 83z m250-250a42 42 0 0 1-29-12l-167-167a42 42 0 0 1-7-8 42 42 0 0 1-5-21 42 42 0 0 1 5-21 42 42 0 0 1 7-9l167-166a42 42 0 0 1 59 0 42 42 0 0 1 0 59l-96 95 316 0a42 42 0 0 1 42 42 42 42 0 0 1-42 41l-316 0 96 96a42 42 0 0 1 0 59 42 42 0 0 1-30 12z" horiz-adv-x="1000" />

<glyph glyph-name="climbing_indoor" unicode="&#xe824;" d="M365 779c24 0 28-22 20-44-1-3-2-6-3-9-33 36-94 23-108-24l-4-13c-11 5-20 14-21 28-5 46 43 27 71 44 20 12 34 17 45 18z m126-54c37 1 68-27 70-63 1-37-28-67-65-69-37-1-68 27-70 63-1 37 28 68 65 69z m162 4c13 0 25-8 29-20l58-148c8-20-6-43-29-43l-125-5 7-165 134-29c22-5 36-28 29-49-16-46-11-33-48-140-6-20-28-31-49-24-20 7-31 28-25 48 11 32 22 63 34 99l-81 18-88-4c-29-94-24-78-35-113 10-37 38-146 49-185 5-20-8-41-29-46-20-6-42 7-47 27-11 43-40 152-51 195-2 7-2 14 0 20 13 43 30 99 37 120l-9 220-124-5c-22 0-39 20-32 41 4 15 41 137 45 152 5 16 22 26 38 23 19-4 30-23 25-41-8-25-25-83-33-109l331 13-42 107c-7 16 2 35 18 41 5 2 9 2 13 2z m89-254c24 2 70-15 53-59-8-23-24-12-57-14-73-3-69 32-43 55 12 11 26 16 47 18z m-464-303c17 1 61-12 78-35 5-7 7-15 6-24 0-3-1-6-3-9-19-43-51-3-84-5-74-4-69 31-44 54 13 12 26 17 47 19z m344-78c7-8 17-14 27-17 25-8 52-2 71 16 40-1 38-28 20-50-11-13-23-21-43-26-23-6-103 8-91 54 3 14 9 20 16 23z" horiz-adv-x="1000" />

<glyph glyph-name="isochrone" unicode="&#xe825;" d="M500 850c-163 0-297-134-297-297 0-63 20-121 54-170l163-282c-1-1-2-2-3-3l0 0c-5-4-10-8-16-12l31-5 32-55c29-38 48-31 72 2l74 125c6-1 13-2 20-4l43 22c-13 3-29 7-47 9l138 236c5 8 8 17 12 26 14 35 22 72 22 111 0 163-134 297-298 297z m0-139c88 0 158-70 158-158 0-87-70-157-158-157-88 0-158 70-158 157 0 88 70 158 158 158z m234-559l-53-19c5-2 9-3 13-5 29-11 57-22 84-34l58 17c-28 12-57 24-88 36a38 13 0 0 1 0 0c-4 1-9 3-14 5z m149-63l-59-16c11-5 22-10 31-15 16-9 29-18 38-27l71 8c-11 12-28 23-46 33l0 0c-11 6-23 12-35 17z m-516-25c-4-3-8-5-13-8l0 0c-23-12-50-23-80-33-4-2-8-3-12-5l50-19c5 1 10 3 14 4 34 12 64 25 90 38l-37 9 37-9c5 3 10 6 15 8l-64 15z m537-55c0-2 0-3 0-4-2-6-7-13-15-18l0 0c-8-6-20-12-34-16l52-20c19 7 36 15 49 23 12 9 20 19 22 29 1 2 1 4 1 6l-75 0z m-697-7c-31-9-63-17-96-25a38 13 0 0 1 0 0c-8-2-17-4-25-6l43-22c8 2 16 4 24 6l0 0c33 8 67 16 100 26l-46 21z m595-46c-12-2-24-5-37-7-29-5-60-9-92-12l22-26c35 4 69 8 103 14l0 0c14 3 29 5 43 8l-39 23z m-782-8c-5-4-9-8-6-14 3-6 12-10 21-13a38 13 0 0 1 0 0c11-4 22-6 31-8a38 13 0 0 1 1 0c18-3 36-6 54-8a38 13 0 0 1 0 0c11-1 22-3 35-4l18 26c-9 1-19 2-29 4-16 2-31 3-44 6-7 1-12 2-15 3l0 0c-1 1 1 0 2-1 0-2-1-3-1-3l-67 12z m584-18c-48-3-96-6-144-7l7-27c51 1 102 4 152 8l-15 26z m-361-7l-9-27c50-2 100-2 149-2a38 13 0 0 1 0 0l7 0-3 27-6 0c-46 0-93 0-138 2z" horiz-adv-x="1000" />

<glyph glyph-name="sidebar-collapse" unicode="&#xe826;" d="M150 850c-82 0-150-68-150-150l0-700c0-82 68-150 150-150l400 0 300 0c82 0 150 68 150 150l0 700c0 82-68 150-150 150l-300 0-400 0z m0-100l350 0 0-800-350 0c-28 0-50 22-50 50l0 700c0 28 22 50 50 50z m450 0l250 0c28 0 50-22 50-50l0-700c0-28-22-50-50-50l-250 0 0 800z m130-250a50 50 0 0 1-36-12 50 50 0 0 1-4-71l58-67-58-67a50 50 0 0 1 4-71 50 50 0 0 1 71 5l87 100a50 50 0 0 1 0 66l-87 100a50 50 0 0 1-35 17z" horiz-adv-x="1000" />

<glyph glyph-name="sidebar-expand" unicode="&#xe827;" d="M150 850c-82 0-150-68-150-150l0-700c0-82 68-150 150-150l400 0 300 0c82 0 150 68 150 150l0 700c0 82-68 150-150 150l-300 0-400 0z m0-100l350 0 0-800-350 0c-28 0-50 22-50 50l0 700c0 28 22 50 50 50z m450 0l250 0c28 0 50-22 50-50l0-700c0-28-22-50-50-50l-250 0 0 800z m201-250a50 50 0 0 1-39-17l-88-100a50 50 0 0 1 0-66l88-100a50 50 0 0 1 70-5 50 50 0 0 1 5 71l-59 67 59 67a50 50 0 0 1-5 71 50 50 0 0 1-31 12z" horiz-adv-x="1000" />

<glyph glyph-name="stopwatch" unicode="&#xe828;" d="M0 617l246 246 81-82-40-41 42-43q58 34 124 52v101h231v-101q99-26 178-90t124-158 45-200q0-94-36-180t-99-148-148-99-179-37-181 37-147 99-99 148-37 180q0 123 62 231l-44 44-41-41z m222-316q0-94 46-174t127-127 174-47 174 47 126 127 47 174-47 174-126 126-174 47-174-47-127-126-46-174z m118 130q0 24 16 41 17 17 41 17t41-17l140-140h198q24 0 41-17t16-41q0-25-17-40-17-18-40-18h-222q-3 0-11 1l-5 2q-1 0-3 1t-3 0q-1 1-3 2t-2 1l-5 3q-3 2-9 8l-157 156q-16 17-16 41z" horiz-adv-x="1031.7" />

<glyph glyph-name="ruler" unicode="&#xe829;" d="M273 850c-40 0-80-15-110-45a46 46 0 0 1 0 0l-118-118 0 0c-60-60-60-159 0-219l0 0 573-573c60-60 159-60 219 0l118 118 0 1c60 60 60 158 0 218l-82 82-136 137-137 136-136 136-82 82a46 46 0 0 1 0 0c-30 30-70 45-109 45z m0-90c16 0 32-7 45-19l49-50-58-59a46 46 0 0 1 0-64 46 46 0 0 1 64 0l59 59 72-72-59-59a46 46 0 0 1 0-64 46 46 0 0 1 64 0l59 58 72-72-59-58a46 46 0 0 1 0-65 46 46 0 0 1 65 0l58 59 73-72-59-59a46 46 0 0 1 0-64 46 46 0 0 1 64 0l59 59 50-50c25-25 25-65 0-90l-119-118c-25-26-65-26-90 0l-573 572 0 0c-25 26-25 65 0 91l0 0 118 118 1 0c12 12 28 19 45 19z" horiz-adv-x="1000" />

<glyph glyph-name="help" unicode="&#xe82a;" d="M494 740q86-62 86-184 0-64-42-124-12-20-88-80l-46-30q-40-34-48-60-6-16-8-44 0-14-16-14l-128 0q-16 0-16 12 4 98 28 124 16 22 48 48t56 42l24 14q22 16 34 34 28 44 28 70 0 40-26 78-28 36-92 36-68 0-94-44-28-42-28-92l-166 0q6 162 114 232 70 42 166 42 130 0 214-60z m-216-636q44 0 73-30t27-74q-2-46-32-73t-74-25q-44 0-73 29t-27 75 32 73 74 25z" horiz-adv-x="580" />

<glyph glyph-name="download" unicode="&#xe82b;" d="M714 100q0 15-10 25t-25 11-25-11-11-25 11-25 25-11 25 11 10 25z m143 0q0 15-10 25t-26 11-25-11-10-25 10-25 25-11 26 11 10 25z m72 125v-179q0-22-16-37t-38-16h-821q-23 0-38 16t-16 37v179q0 22 16 38t38 16h259l75-76q33-32 76-32t76 32l76 76h259q22 0 38-16t16-38z m-182 318q10-23-8-39l-250-250q-10-11-25-11t-25 11l-250 250q-17 16-8 39 10 21 33 21h143v250q0 15 11 25t25 11h143q14 0 25-11t10-25v-250h143q24 0 33-21z" horiz-adv-x="928.6" />

<glyph glyph-name="person-walking" unicode="&#xe82c;" d="M313 756a94 94 0 1 0 187 0 94 94 0 1 0-187 0z m-66-295c-2-1-4-2-6-3l-15-6c-32-15-57-42-68-75l-5-15c-11-33-46-51-79-40s-51 47-40 79l6 16c22 66 71 121 135 149l16 7c40 18 84 27 129 27 87 0 165-52 199-132l30-72 42-21c31-16 43-53 28-84s-53-43-84-28l-53 26c-20 10-35 27-44 48l-19 45-38-128 97-106c11-11 18-25 22-40l45-180c8-34-12-68-46-76s-67 12-75 45l-43 173-138 150c-29 32-40 76-29 117l33 124z m-113-388l49 122c4-6 9-12 14-17l79-87-28-71c-5-11-12-22-21-31l-120-121c-25-24-64-24-89 0s-24 64 0 89l116 116z" horiz-adv-x="625" />

<glyph glyph-name="car" unicode="&#xe82d;" d="M335 663h103v-188h-221l60 148c9 24 32 40 58 40z m196-188v188h159c19 0 37-9 49-24l131-164h-339z m501-2l-196 244c-35 45-89 71-146 71h-355c-77 0-146-47-174-118l-82-204c-46-18-79-63-79-116v-219c0-34 28-62 63-62h65c14-89 92-157 185-157s170 68 185 157h255c14-89 92-157 185-157s170 68 185 157h65c34 0 62 28 62 62v94c0 127-95 232-218 248z m-183-342a94 94 0 1 0 177-62 94 94 0 1 0-177 62z m-536 63a94 94 0 1 0 0-188 94 94 0 1 0 0 188z" horiz-adv-x="1250" />

<glyph glyph-name="settings" unicode="&#xe82e;" d="M571 350q0 59-41 101t-101 42-101-42-42-101 42-101 101-42 101 42 41 101z m286 61v-124q0-7-4-13t-11-7l-104-16q-10-30-21-51 19-27 59-77 6-6 6-13t-5-13q-15-21-55-61t-53-39q-7 0-14 5l-77 60q-25-13-51-21-9-76-16-104-4-16-20-16h-124q-8 0-14 5t-6 12l-16 103q-27 9-50 21l-79-60q-6-5-14-5-8 0-14 6-70 64-92 94-4 5-4 13 0 6 5 12 8 12 28 37t30 40q-15 28-23 55l-102 15q-7 1-11 7t-5 13v124q0 7 5 13t10 7l104 16q8 25 22 51-23 32-60 77-6 7-6 14 0 5 5 12 15 20 55 60t53 40q7 0 15-5l77-60q24 13 50 21 9 76 17 104 3 16 20 16h124q7 0 13-5t7-12l15-103q28-9 51-20l79 59q5 5 13 5 7 0 14-5 72-67 92-95 4-5 4-12 0-7-4-13-9-12-29-37t-30-40q15-28 23-54l102-16q7-1 12-7t4-13z" horiz-adv-x="857.1" />

<glyph glyph-name="person-biking" unicode="&#xe82f;" d="M781 663a94 94 0 1 1 0 187 94 94 0 1 1 0-187z m53-125l-120 95c-34 26-82 27-116 0l-162-125c-60-46-56-138 8-179l119-75v-216c0-35 27-63 62-63s63 28 63 63v250c0 20-11 40-28 52l-84 55 118 95 79-64c12-9 25-13 40-13h125c34 0 62 27 62 62s-28 63-62 63h-104z m-725-438a141 141 0 1 0 282 0 141 141 0 1 0-282 0z m391 0a250 250 0 1 1-500 0 250 250 0 1 1 500 0z m359 0a141 141 0 1 0 282 0 141 141 0 1 0-282 0z m391 0a250 250 0 1 1-500 0 250 250 0 1 1 500 0z" horiz-adv-x="1250" />

<glyph glyph-name="locality-1" unicode="&#xe830;" d="M714 421c11 0 28 26 28 36 0 10-17 36-28 36h-500c-11 0-27-26-27-36 0-10 16-36 27-36z m-500 215c-11 0-27-26-27-36 0-10 16-36 27-36h500c11 0 28 26 28 36 0 10-17 36-28 36m-643-286v357h358v72h71v-72h357v-357h-357v-357h179v-72h-429v72h179v357z" horiz-adv-x="1000" />

<glyph glyph-name="local_product" unicode="&#xe831;" d="M500 636c224 0 405-62 405-138 0-48-70-89-177-114l-122 61c0 0 0-1 0-1 0-17-13-32-30-32-17 0-30 15-30 32 0 10 4 19 11 25l-57 29 47-135v-2c-16-1-31-1-47-1-223 0-405 62-405 138 0 76 182 138 405 138z m424-209c14-75-6-146-19-225-8-46-69-88-173-113-1 0-2 0-2 1l-183 102v-124c0-1-2-3-3-3-15 0-29-1-44-1-223 0-392 63-405 138-13 79-33 150-19 225 22-26 60-52 124-74 81-27 187-42 300-42 16 0 31 0 47 1v-6c16-2 29-17 29-35 0-13-7-24-16-30l70-40c0 0 0 1 0 1 0 19 15 34 32 34 18 0 32-15 32-34 0-12-6-22-15-29l51-28v189c25 5 49 12 70 19 64 22 102 48 124 74z m-263-42c24 0 44-21 44-46 0-26-20-46-44-46-24 0-43 20-43 46 0 25 19 46 43 46z" horiz-adv-x="1000" />

<glyph glyph-name="misc" unicode="&#xe832;" d="M500 779c-103 0-195-54-247-145-52-91-52-199 0-290l237-417c2-3 6-6 10-6 4 0 8 3 10 6l237 417c52 91 52 199 0 290-51 91-144 145-247 145z m0-67c120 0 217-99 217-220 0-121-97-220-217-220-119 0-217 99-217 220 0 121 98 220 217 220z m0-23c-107 0-194-88-194-197 0-16 2-32 5-47l109 156c2 3 9 12 9 12 0 0 7-9 9-12l62-89 62 89c2 3 9 5 9 5 0 0 7-2 9-5l109-156c4 15 6 31 6 47 0 109-88 197-195 197z m-22-185l-15-18c-2-3-5-4-8-4h-1c-3 0-5 1-8 3l-17 19-17-17c-4-4-11-4-15 0l-18 17-59-86c28-72 98-123 180-123 82 0 152 51 180 123l-59 86-16-18c-2-3-5-4-8-4h0c-3 0-6 1-8 3l-18 19-17-17c-4-4-11-4-15 0l-17 17-8-12 44-63c3-5 2-12-3-16-2-1-4-2-6-2-4 0-7 2-9 5l-62 88z" horiz-adv-x="1000" />

<glyph glyph-name="paragliding_landing" unicode="&#xe833;" d="M446 779c-118 0-234-19-342-56-15-5-26-18-31-36-4-17-1-36 9-50l18-27c18-27 37-54 56-82 10-14 26-21 41-18l103-143c-2-5-3-11-2-16l23-97c1-7 6-13 13-17l2 0 47-23v-109l-22-26-2-3c-4-5-7-12-6-19l4-109c1-14 12-26 26-27 15 0 28 12 29 27l3 95 29 29 28-29 4-95c0-14 11-26 26-27 15 0 28 12 28 27l5 109c0 7-2 14-7 20l-2 2-17 21v114l47 23 2 0c6 4 12 10 13 17l22 97c2 5 1 11-2 16l104 143c2-1 5-1 7-1 13 0 26 7 34 19l74 109c10 14 13 33 8 50-4 18-15 31-30 36-108 37-224 56-342 56z m0-228c56 0 110-6 163-18l-40-154c-9-1-17-7-19-16l-25-81-41-16h-76l-41 16-25 81c-2 9-10 15-19 16l-41 154c54 12 108 18 164 18z m-178-21l38-145-93 130c18 5 36 11 55 15z m356 0c19-4 37-10 55-15l-93-130z m159-157c-12 0-22-10-22-23v-340l-93 96c-9 9-23 9-32 0-8-9-8-24 0-32l131-135c4-4 10-6 16-6 6 0 12 2 16 6l130 135c9 8 9 23 0 32-8 9-22 9-31 0l-93-96v340c0 13-10 23-22 23z m-341 8c-20-2-38-15-44-36-9-27 5-56 32-66 26-9 55 6 64 33 9 28-5 57-32 66-7 3-13 3-20 3z" horiz-adv-x="1000" />

<glyph glyph-name="paragliding_takeoff" unicode="&#xe834;" d="M446 779c-118 0-234-19-342-56-15-5-26-19-31-36-4-17-1-36 9-50l18-27c18-27 37-54 56-82 10-15 26-21 41-18l103-143c-2-5-3-11-2-16l23-97c1-7 6-13 13-17l2 0 47-23v-109l-22-26-2-3c-4-5-7-12-6-19l4-109c1-14 12-26 26-27 15 0 28 12 29 27l3 95 29 29 28-29 4-95c0-14 11-26 26-27 15 0 28 12 28 27l5 109c0 7-2 14-7 20l-2 2-17 21v114l47 23 2 0c6 4 12 10 13 17l23 97c1 5 0 11-3 16l104 143c2-1 5-1 7-1 13 0 26 7 34 19l74 109c10 14 13 33 8 50-4 17-15 31-30 36-109 37-224 56-342 56z m0-228c56 0 110-6 163-18l-40-154c-9-1-17-7-19-16l-25-81-41-16h-76l-41 16-25 81c-2 9-10 15-19 16l-41 154c54 12 108 18 164 18z m-178-21l38-145-93 130c18 5 36 11 55 15z m356 0c19-4 37-10 55-15l-93-130z m166-157c-6 0-12-3-16-7l-131-134c-8-9-8-23 0-32 9-9 23-9 31 0l94 96v-341c0-12 10-22 22-22 12 0 22 10 22 22v341l93-96c9-9 23-9 31 0 9 9 9 23 0 32l-130 134c-4 4-10 7-16 7z m-348 8c-20-2-38-15-44-36-9-27 5-56 32-66 26-9 55 6 64 33 9 28-5 57-32 66-7 3-13 3-20 3z" horiz-adv-x="1000" />

<glyph glyph-name="pass" unicode="&#xe835;" d="M632 564c21 0 42-12 57-36l240-392-264 0-594 0 240 392c29 48 85 48 114 0l66-109c5-7 13-7 18 0l66 109c15 24 36 36 57 36z m12-181c-24 0-48-13-64-40l-32-52c-19-31-54-31-73 0l-32 52c-33 54-94 54-127 0l-110-180 130 163c24 30 62 28 84-4l56-84c19-27 52-27 71 0l56 84c22 32 60 34 84 4l130-163-110 180c-16 27-40 40-63 40z" horiz-adv-x="1000" />

<glyph glyph-name="shelter" unicode="&#xe836;" d="M514 772c136-133 272-266 408-399 8-16 8-22-14-23h-122v-407c0-12-5-22-16-22h-65c-12 0-21 10-21 22v336h-368v-336c0-12-9-22-21-22h-65c-11 0-15 10-16 22v407h-122c-34 1-16 14-13 24 136 133 271 266 407 399 8 8 20 8 28-1" horiz-adv-x="1000" />

<glyph glyph-name="slackline_spot" unicode="&#xe837;" d="M500 779c-190 3-370-137-415-321-44-166 22-355 162-455 140-103 343-110 488-12 137 89 215 260 189 422-23 166-153 313-317 352-35 9-71 14-107 14z m-89-55c-6-20 18 10 4-18 29 26-4-36-3-49 5-38 14-80 60-87 57-14 15 58 41 78 39 19 80-26 48-60-12-54 57-70 96-70 45-3 92 4 126-30 33-37-33 14-53-6-49-1-100-9-149 1-34 1-27-67-26-92 2-27 23-55-7-77 5-57-18-112-13-170 7-36-6-102 53-93 86 20 172 36 259 55-40-27-91-20-136-35-54-11-109-23-164-32-31 1-53 9-88 6l-321 91-4 8 324-92c-34 14 14 62 5 91 15 28 27 65 15 97-16 33-43 64-46 102 3 33 18 65 15 103-6 33 10 74-21 98-26 25-55 52-45 92 4 28 10 56 18 82-2-23 4-8 8 3z m77-618c-3-6-17-9-14-23 3-14 28-40 40-29 0 7-2 22-6 34-4 12-10 21-20 18z" horiz-adv-x="1000" />

<glyph glyph-name="summit" unicode="&#xe838;" d="M454 247l-25 148-97-54 122 227 121-227-96 54z m321-49l-56 31-15-87-14 87-57-31 71 133z m154-205l-225 419-46-86-204 381-383-714z m0 0" horiz-adv-x="1000" />

<glyph glyph-name="virtual" unicode="&#xe839;" d="M499 733c-222 0-402-174-402-389 0-214 180-388 402-388 221 0 401 174 401 388 0 215-180 389-401 389z m0-15c213 0 386-167 386-374 0-206-173-373-386-373-214 0-387 167-387 373 0 207 173 374 387 374z m-2 96l-48-371-114 86 97-128c-396-50 0 0-396-50 379-56 0 0 379-56l-88-108 120 88 52-389 53 397 128-94-84 107 368 49-384 51 108 138-135-101z" horiz-adv-x="1000" />

<glyph glyph-name="waterfall" unicode="&#xe83a;" d="M347 66a143 143 0 0 1 72-18 143 143 0 0 1 72 16c22 10 45 21 90 20 46 0 70-13 90-23a143 143 0 0 1 72-18c14 0 26 1 35 3v0c11 30 3 52-5 65a62 62 0 0 1-49 30 61 61 0 0 1-43-16 21 21 0 0 0-17-6 22 22 0 0 0-15 9c-14 19-35 30-57 30a69 69 0 0 1-36-9 21 21 0 0 0-26 3c-19 19-43 29-69 30-25 0-50-9-68-27a21 21 0 0 0-26-2c-11 7-24 11-38 11-40 0-73-33-78-75h6c45-1 69-13 90-23m217 517l13-376a109 109 0 0 0 59-8l-29 383-43 1z m-46 1h-36l-19-352c24 0 48-7 68-20l-13 372z m-161-374c7-1 13-4 19-7 13 10 27 18 41 22l20 360h-43l-37-374z m572-156c0-15-11-25-23-25-36 0-53-7-72-16-22-10-46-21-91-20-45 0-69 12-90 23-19 9-36 17-72 18-35 0-52-8-72-16-22-10-45-22-90-20-46 0-70 12-90 22-20 9-36 18-72 19-36 0-53-8-73-17-21-10-45-21-90-20-13 0-23 12-23 26l8 536c0 14 10 25 22 25l248-4 2 29c2 12 12 22 23 22l253-4c12 0 22-10 23-23l2-28 244-4c13 0 23-11 23-26l10-497" horiz-adv-x="1000" />

<glyph glyph-name="waterpoint" unicode="&#xe83b;" d="M488 779c-17 0-25-10-25-22h-110c-20 0-37-14-37-32 0-17 17-31 37-31h110v-43h-12c-20 0-37-14-37-32 0-13 9-24 22-29-30-9-57-25-77-46h-190v64c0 24-21 43-48 43-28 0-50-19-50-43v-319c0-24 22-43 50-43 27 0 48 19 48 43v85h168c29-48 87-82 155-82 86 0 157 54 172 125h69c13 0 24-10 24-22v-42c-13 0-24-10-24-22v-42c0-12 11-21 24-21h147c14 0 25 9 25 21v42c0 12-11 22-25 22v149c0 11-11 21-24 21h-238c-22 33-57 57-100 68 12 6 19 16 19 28 0 18-16 32-36 32h-13v43h111c20 0 36 14 36 31 0 18-16 32-36 32h-111c0 12-8 22-24 22z m338-591c0 0-102-128-102-177 0-50 45-90 102-90 57 0 103 40 103 90 0 49-103 177-103 177z" horiz-adv-x="1000" />

<glyph glyph-name="weather_station" unicode="&#xe83c;" d="M429 779c-79 0-143-48-143-108v-469c-44-29-72-72-72-120 0-89 97-161 215-161 119 0 215 72 215 161 0 48-28 91-73 120v469c0 60-63 108-142 108z m0-54c40 0 71-24 71-54v-496c43-19 72-53 72-93 0-59-64-107-143-107-79 0-143 48-143 107 0 40 28 74 71 93v496c0 30 33 54 72 54z m249-67c-11 0-19-7-19-15 0-8 8-14 19-14h112c11 0 20 6 20 14 0 8-9 15-20 15z m0-67c-11 0-19-7-19-15 0-8 8-14 19-14h112c11 0 20 6 20 14 0 8-9 15-20 15z m0-67c-11 0-19-6-19-15 0-8 8-14 19-14h112c11 0 20 6 20 14 0 9-9 15-20 15z m-249-67c-20 0-36-12-36-27v-272c-42-11-71-41-71-76 0-44 48-80 107-80 59 0 108 36 108 80 0 35-31 65-73 76v272c0 15-15 27-35 27z m249 0c-11 0-19-6-19-15 0-8 8-14 19-14h112c11 0 20 6 20 14 0 9-9 15-20 15z m0-67c-11 0-19-6-19-14 0-9 8-15 19-15h112c11 0 20 6 20 15 0 8-9 14-20 14z" horiz-adv-x="1000" />

<glyph glyph-name="webcam" unicode="&#xe83d;" d="M500 779c-197 0-357-165-357-367 0-144 80-268 197-329-32-33-55-78-62-127-2-9 1-18 6-24 6-7 14-11 22-11h388c8 0 16 4 22 11 5 6 8 15 6 24-7 49-29 94-62 127 117 61 197 185 197 329 0 202-160 367-357 367z m0-122c132 0 239-110 239-245 0-136-107-246-239-246-132 0-239 110-239 246 0 135 107 245 239 245z m0-115c-70 0-127-58-127-130 0-72 57-131 127-131 70 0 127 59 127 131 0 72-57 130-127 130z" horiz-adv-x="1000" />

<glyph glyph-name="unknown" unicode="&#xe83e;" d="M772 78q30-34 6-62l-46-46q-36-32-68 0l-190 190q-74-42-156-42-128 0-223 95t-95 223 90 219 218 91 224-95 96-223q0-88-46-162z m-678 358q0-88 68-156t156-68 151 63 63 153q0 88-68 155t-156 67-151-63-63-151z" horiz-adv-x="789" />

<glyph glyph-name="lonlat" unicode="&#xe83f;" d="M499 733c-222 0-402-174-402-389 0-214 180-388 402-388 221 0 401 174 401 388 0 215-180 389-401 389z m0-15c213 0 386-167 386-374 0-206-173-373-386-373-214 0-387 167-387 373 0 207 173 374 387 374z m-2 96l-48-371-114 86 97-128c-396-50 0 0-396-50 379-56 0 0 379-56l-88-108 120 88 52-389 53 397 128-94-84 107 368 49-384 51 108 138-135-101z" horiz-adv-x="1000" />

<glyph glyph-name="locate-off" unicode="&#xe840;" d="M46 850a46 46 0 0 1-33-13 46 46 0 0 1 0-65l202-202c-39-49-67-109-75-174h-94a46 46 0 0 1-46-46 46 46 0 0 1 46-45h93c21-165 151-295 316-316v-94a46 46 0 0 1 45-45 46 46 0 0 1 46 45v95c65 8 125 36 174 75l202-202a46 46 0 0 1 65 0 46 46 0 0 1 0 65l-909 909a46 46 0 0 1-32 13z m454 0a46 46 0 0 1-45-45v-94c-20-3-39-7-57-12a46 46 0 0 1-31-57 46 46 0 0 1 57-30c25 7 50 11 76 11 151 0 273-122 273-273 0-26-4-51-11-76a46 46 0 0 1 30-57 46 46 0 0 1 57 31c5 18 9 37 12 57h94a46 46 0 0 1 45 45 46 46 0 0 1-45 46h-94c-21 164-151 294-315 315v94a46 46 0 0 1-46 45z m-220-344l376-376c-45-33-98-53-156-53-151 0-273 122-273 273 0 58 20 111 53 156z" horiz-adv-x="1000" />

<glyph glyph-name="geolocation-cog" unicode="&#xe841;" d="M500 850a46 46 0 0 1-45-45l0-94c-164-21-295-151-316-315l-93 0a46 46 0 0 1-46-46 46 46 0 0 1 46-45l93 0c21-164 152-295 316-316l0-94a46 46 0 0 1 45-45 46 46 0 0 1 46 45l0 94c164 21 294 152 315 316l94 0a46 46 0 0 1 45 45 46 46 0 0 1-45 46l-94 0c-21 164-151 294-315 315l0 94a46 46 0 0 1-46 45z m0-227c151 0 273-122 273-273 0-151-122-273-273-273-151 0-273 122-273 273 0 151 122 273 273 273z m0-46a46 46 0 0 1-45-45l0-6c-17-4-33-11-47-20l-12 13a46 46 0 0 1-32 13 46 46 0 0 1-32-13 46 46 0 0 1 0-65l12-12c-9-14-16-30-20-46l-6 0a46 46 0 0 1-45-46 46 46 0 0 1 45-45l6 0c4-17 11-33 20-47l-12-12a46 46 0 0 1 0-64 46 46 0 0 1 64 0l12 12c14-9 30-16 47-20l0-6a46 46 0 0 1 45-45 46 46 0 0 1 46 45l0 6c16 4 32 11 46 20l12-12a46 46 0 0 1 65 0 46 46 0 0 1 0 64l-13 12c9 14 16 30 20 47l6 0a46 46 0 0 1 45 45 46 46 0 0 1-45 46l-6 0c-4 16-11 32-20 46l13 12a46 46 0 0 1 0 65 46 46 0 0 1-33 13 46 46 0 0 1-32-13l-12-13c-14 9-30 16-46 20l0 6a46 46 0 0 1-46 45z m0-136c24 0 46-9 62-25a46 46 0 0 1 2-2 46 46 0 0 1 2-2c16-16 25-38 25-62 0-24-9-46-25-62a46 46 0 0 1-2-2 46 46 0 0 1-2-2c-16-16-38-25-62-25-24 0-45 9-61 24a46 46 0 0 1-3 3 46 46 0 0 1-2 2c-16 16-25 38-25 62 0 24 9 46 25 62a46 46 0 0 1 2 2 46 46 0 0 1 3 3c16 15 37 24 61 24z" horiz-adv-x="1000" />

<glyph glyph-name="light" unicode="&#xe842;" d="M950 390q20 0 35-12t15-28q0-40-50-40l-48 0q-50 0-50 40 0 16 15 28t35 12l48 0z m-450 234q114 0 195-80t81-194q0-116-81-196t-195-80-194 80-80 196q0 114 80 194t194 80z m0-474q82 0 141 58t59 142q0 82-59 141t-141 59-141-59-59-141q0-84 59-142t141-58z m-350 200q0-40-50-40l-50 0q-50 0-50 40 0 16 15 28t35 12l50 0q20 0 35-12t15-28z m350 350q-16 0-28 15t-12 35l0 50q0 20 12 35t28 15 28-15 12-35l0-50q0-20-12-35t-28-15z m0-700q16 0 28-15t12-35l0-50q0-20-12-35t-28-15-28 15-12 35l0 50q0 20 12 35t28 15z m368 660l-34-34q-34-34-64-8-28 28 8 64 4 6 34 36 36 34 64 6t-8-64z m-700-588q14 16 33 18t29-10q12-12 10-31t-16-33l-36-36q-14-14-33-16t-29 10q-30 28 6 64 6 4 36 34z m20 646l36-36q36-36 6-64-10-10-29-8t-33 16q-30 30-36 34-14 14-16 33t10 31q10 12 29 10t33-16z m590-702q-36 36-8 64t64-8l34-34q36-36 8-64t-64 6q-30 30-34 36z" horiz-adv-x="1000" />

<glyph glyph-name="dark" unicode="&#xe843;" d="M706 178q105 0 205 56-42-145-162-238t-275-93q-188 0-322 134t-134 323q0 154 93 274t237 163q-56-100-56-205 0-172 122-293t292-121z" horiz-adv-x="928" />

<glyph glyph-name="vector" unicode="&#xf045;" d="M0 40l136 136 47-47 220 219q-31 45-26 100t44 94q39 39 94 44t99-26l221 220-48 48 135 135 136-135-136-136-47 47-142-142q66 16 123 16 101 0 193-39t164-110q13-12 13-30t-13-31-31-13-30 13q-60 59-136 91t-160 31q-97 0-183-42 14-39 5-82t-41-75q-32-31-75-41t-82 5q-38-78-42-164t27-169 94-146q13-13 13-31t-13-30q-13-13-30-13-17 0-30 13-96 96-131 224t-1 256l-143-142 47-48-135-135z m82 0l54-54 53 54-53 54z m787 788l53-55 54 55-54 53z" horiz-adv-x="1226.6" />

<glyph glyph-name="code" unicode="&#xf121;" d="M344 69l-28-28q-5-5-12-5t-13 5l-260 261q-6 5-6 12t6 13l260 260q5 6 13 6t12-6l28-28q6-5 6-13t-6-12l-219-220 219-219q6-6 6-13t-6-13z m330 596l-208-721q-2-7-9-11t-13-1l-34 9q-8 3-11 9t-2 14l209 720q2 8 8 11t13 2l35-10q7-2 11-9t1-13z m367-363l-260-261q-6-5-13-5t-13 5l-28 28q-5 6-5 13t5 13l219 219-219 220q-5 5-5 12t5 13l28 28q6 6 13 6t13-6l260-260q5-5 5-13t-5-12z" horiz-adv-x="1071.4" />

<glyph glyph-name="star-half" unicode="&#xf123;" d="M662 316l143 140-198 29-37 5-17 34-89 179v-537l33-17 178-94-34 198-6 37z m252 146l-202-197 48-279q2-19-4-29t-19-11q-9 0-22 7l-251 132-250-132q-13-7-23-7-12 0-19 11t-3 29l48 279-203 197q-18 18-13 33t30 20l280 40 126 254q11 23 27 23 16 0 28-23l125-254 280-40q25-4 31-20t-14-33z" horiz-adv-x="928.6" />

<glyph glyph-name="info" unicode="&#xf129;" d="M357 100v-71q0-15-10-25t-26-11h-285q-15 0-25 11t-11 25v71q0 15 11 25t25 11h35v214h-35q-15 0-25 11t-11 25v71q0 15 11 25t25 11h214q15 0 25-11t11-25v-321h35q15 0 26-11t10-25z m-71 643v-107q0-15-11-25t-25-11h-143q-14 0-25 11t-11 25v107q0 14 11 25t25 11h143q15 0 25-11t11-25z" horiz-adv-x="357.1" />

<glyph glyph-name="history" unicode="&#xf1da;" d="M857 350q0-87-34-166t-91-137-137-92-166-34q-96 0-183 41t-147 114q-4 6-4 13t5 11l76 77q6 5 14 5 9-1 13-7 41-53 100-82t126-29q58 0 110 23t92 61 61 91 22 111-22 111-61 91-92 61-110 23q-55 0-105-20t-90-57l77-77q17-16 8-38-10-23-33-23h-250q-15 0-25 11t-11 25v250q0 24 22 33 22 10 39-8l72-72q60 57 137 88t159 31q87 0 166-34t137-92 91-137 34-166z m-357 161v-250q0-8-5-13t-13-5h-178q-8 0-13 5t-5 13v35q0 8 5 13t13 5h125v197q0 8 5 13t12 5h36q8 0 13-5t5-13z" horiz-adv-x="857.1" />

<glyph glyph-name="sliders" unicode="&#xf1de;" d="M196 64v-71h-196v71h196z m197 72q14 0 25-11t11-25v-143q0-14-11-25t-25-11h-143q-14 0-25 11t-11 25v143q0 15 11 25t25 11h143z m89 214v-71h-482v71h482z m-357 286v-72h-125v72h125z m732-572v-71h-411v71h411z m-536 643q15 0 26-10t10-26v-142q0-15-10-25t-26-11h-142q-15 0-25 11t-11 25v142q0 15 11 26t25 10h142z m358-286q14 0 25-10t10-25v-143q0-15-10-25t-25-11h-143q-15 0-25 11t-11 25v143q0 14 11 25t25 10h143z m178-71v-71h-125v71h125z m0 286v-72h-482v72h482z" horiz-adv-x="857.1" />

<glyph glyph-name="trash" unicode="&#xf1f8;" d="M286 82v393q0 8-5 13t-13 5h-36q-8 0-13-5t-5-13v-393q0-8 5-13t13-5h36q8 0 13 5t5 13z m143 0v393q0 8-5 13t-13 5h-36q-8 0-13-5t-5-13v-393q0-8 5-13t13-5h36q8 0 13 5t5 13z m142 0v393q0 8-5 13t-12 5h-36q-8 0-13-5t-5-13v-393q0-8 5-13t13-5h36q7 0 12 5t5 13z m-303 554h250l-27 65q-4 5-9 6h-177q-6-1-10-6z m518-18v-36q0-8-5-13t-13-5h-54v-529q0-46-26-80t-63-34h-464q-37 0-63 33t-27 79v531h-53q-8 0-13 5t-5 13v36q0 8 5 13t13 5h172l39 93q9 21 31 35t44 15h178q23 0 44-15t30-35l39-93h173q8 0 13-5t5-13z" horiz-adv-x="785.7" />
</font>
</defs>
</svg>
